<?xml version="1.0" encoding="utf-8"?>
<!-- Generator: Adobe Illustrator 24.2.0, SVG Export Plug-In . SVG Version: 6.00 Build 0)  -->
<svg version="1.0" id="Layer_1" xmlns="http://www.w3.org/2000/svg" xmlns:xlink="http://www.w3.org/1999/xlink" x="0px" y="0px"
	 viewBox="0 0 1993 1993" style="enable-background:new 0 0 1993 1993;" xml:space="preserve">
<path style="fill:#FFB300;stroke:#FFB300;stroke-width:7;stroke-miterlimit:10;" d="M1859.3,1711.6c14.7,26.6-3.6,60.1-32.8,60
	l-10,0h0l-63.6-0.2l-75.5-0.3h0l-64.2-0.2l-75-0.3h0l-64.7-0.2l-74.5-0.3l-65.2-0.2l-74-0.3l-65.7-0.2l-73.5-0.3l-66.2-0.2
	l-72.9-0.3h0l-66.8-0.2l-72.4-0.3l-67.3-0.2l-71.9-0.3l-67.9-0.2l-71.4-0.3l35.6-64.3l34.5-62.4l35.2-63.6l34.9-63.1h0l34.8-62.9
	l35.3-63.8l34.4-62.2l35.7-64.5l34-61.4l36.1-65.3L948,1073l36.5-66l33.2-60l36.9-66.7l31.4-56.7c0.9-1.6,0.9-3.6,0-5.2l-36-65.1
	l-27.6-49.8c-2.1-3.7-7.4-3.7-9.4,0l-27.4,49.5h0L948,821l-32.6,58.8L878.2,947l-32.9,59.5l-36.8,66.5l-33.3,60.3l-36.4,65.7v0
	l-33.8,61l-36,65v0l-34.2,61.7l-35.6,64.3l-34.6,62.5l-35.2,63.5l-35,63.2l-34.8,62.8v0L426,1764c-1,1.7-2.8,2.8-4.7,2.8l-65.7-0.2
	l-70.3-0.3l-69.4-0.2l-10.1,0c-26.5-0.1-42.9-30.4-29.6-54.5l4.8-8.6l35.3-63.8l34.4-62.2l35.7-64.5l34-61.5l36.1-65.2l33.6-60.7
	l36.5-66l33.2-60l36.9-66.7l32.8-59.3l37.3-67.4l32.4-58.6l37.7-68.1l32-57.9l38.1-68.8l31.6-57.1l38.5-69.6l31.2-56.4l38.9-70.3
	l30.8-55.7l39.3-71l30.4-54.9l39.7-71.8v0c13-23.6,47-23.6,60,0l0.1,0.2l39.6,71.6l30.8,55.6l38.9,70.4l31.5,56.8l38.3,69.1v0
	l32.1,58l37.6,67.9v0l32.8,59.2l36.9,66.7l33.4,60.5l36.3,65.5l34.1,61.6l35.6,64.4l34.8,62.8l35,63.1l35.5,64.1l34.3,61.9
	l36.1,65.2l-72.1-0.2l-67.6-0.3l-71.6-0.2l-65-0.2c-2,0-3.7-1.1-4.7-2.8l-34.1-61.5l-34.8-62.9l-34.9-63.1l-35.5-64.1l-29.6-53.4
	c-2.1-3.7-7.4-3.7-9.4,0l-29.4,53.2l-35.6,64.3l-34.6,62.4l-35.2,63.6l-35,63.1l-34.8,62.8v0l-30.9,55.9c-2,3.6,0.6,8,4.7,8
	l61.7,0.2l68.4,0.2l71.3,0.3l67.9,0.2l71.9,0.3l67.3,0.2l72.4,0.3l66.8,0.2l72.9,0.3l66.3,0.2l70.3,0.2c2,0,3.8,1.1,4.7,2.8
	l31.4,56.7l37.5,67.7l32.3,58.3L1859.3,1711.6z"/>
</svg>
