<svg id="Layer_1" data-name="Layer 1" xmlns="http://www.w3.org/2000/svg" viewBox="0 0 1994 1994">
    <defs>
        <style>
            .cls-1{stroke:#000;}.cls-1,.cls-2{stroke-miterlimit:10;}.cls-2{fill:#ffb300;stroke:#ffb300;stroke-width:5.76px;}</style>
    </defs>
    <rect class="cls-1" x="0.5" y="0.5" width="1993" height="1993" rx="449.61" />
    <path class="cls-2"
        d="M1688.73,1448.67c12.1,21.88-3,49.45-27,49.37h-8.22l-52.33-.17-62.13-.25h0l-52.82-.16-61.71-.25h0l-53.23-.16-61.3-.25-53.65-.16-60.89-.25-54-.16-60.48-.25-54.47-.17-60-.24h0l-55-.17-59.57-.24-55.38-.17-59.16-.25-55.87-.16-58.74-.25,29.29-52.9,28.38-51.35,29-52.33,28.71-51.91h0l28.64-51.76,29-52.49,28.31-51.18,29.37-53.07,28-50.52,29.71-53.73,27.73-49.86,30-54.31,27.31-49.36,30.37-54.88L1052.46,718a4.4,4.4,0,0,0,0-4.28l-29.62-53.56-22.71-41a4.41,4.41,0,0,0-7.73,0l-22.55,40.72h0l-30.93,56-26.83,48.38-30.61,55.3-27.07,49-30.27,54.72-27.4,49.61-30,54.06h0L739,1077.09l-29.62,53.48h0l-28.14,50.77-29.3,52.91-28.47,51.42-29,52.25-28.8,52-28.63,51.67h0l-27.64,50.19a4.59,4.59,0,0,1-3.87,2.31l-54.06-.17-57.84-.24-57.1-.17h-8.32c-21.8-.08-35.29-25-24.35-44.84l3.95-7.08,29-52.49,28.31-51.18,29.37-53.07,28-50.6,29.7-53.65,27.65-49.94,30-54.31L537.23,1027l30.36-54.88,27-48.79,30.7-55.46,26.65-48.21,31-56L709.27,716l31.35-56.61,26-47,31.68-57.27L824,508.7l32-57.84L881.32,405l32.34-58.42,25-45.17,32.66-59.08h0C982,223,1010,223,1020.7,242.36l.08.17,32.59,58.91,25.34,45.75,32,57.92,25.91,46.74,31.52,56.85h0l26.41,47.73,30.94,55.86h0l27,48.71,30.37,54.88,27.48,49.78,29.86,53.9,28.06,50.68,29.29,53,28.64,51.67,28.79,51.92,29.21,52.74,28.23,50.93,29.7,53.65-59.32-.17-55.63-.24-58.91-.17-53.48-.16a4.48,4.48,0,0,1-3.87-2.31l-28.05-50.6-28.64-51.75-28.71-51.92-29.21-52.74-24.36-43.94a4.42,4.42,0,0,0-7.73,0L1140,973.91l-29.29,52.91-28.47,51.34-29,52.33-28.79,51.92-28.64,51.67h0l-25.42,46a4.42,4.42,0,0,0,3.87,6.58l50.76.16,56.28.17,58.67.25,55.87.16,59.16.25,55.37.16,59.57.25,55,.16,60,.25,54.55.16,57.84.17a4.37,4.37,0,0,1,3.87,2.3l25.83,46.65,30.86,55.71,26.57,48Z"
        transform="translate(0.5 0.5)" />
</svg>